{"title":"Prometheus 2012 DVDRip x264 AC3 - ViZNU [P2PDL]","uid":7620232,"size":425617917,"categoryP":"video","categoryS":"movies","magnet":"?xt=urn:btih:00cd4e45e6bc779b29b25331b9b48e7b3c45f24e&amp;dn=Prometheus+2012+DVDRip+x264+AC3+-+ViZNU+%5BP2PDL%5D&amp;tr=udp%3A%2F%2Ftracker.openbittorrent.com%3A80&amp;tr=udp%3A%2F%2Fopen.demonii.com%3A1337&amp;tr=udp%3A%2F%2Ftracker.coppersurfer.tk%3A6969&amp;tr=udp%3A%2F%2Fexodus.desync.com%3A6969","seeders":1,"leechers":0,"uploader":"ValidusVyto","files":15,"time":1347307005,"description":"_________________________  Visit us at _________________________\n  &lt;a href=&quot;\nhttp://tinym.eu&quot; rel=&quot;nofollow&quot; target=&quot;_NEW&quot;&gt;\nhttp://tinym.eu&lt;/a&gt;  ____________________________ &lt;a href=&quot; http://p2pdl.com&quot; rel=&quot;nofollow&quot; target=&quot;_NEW&quot;&gt; http://p2pdl.com&lt;/a&gt;\n\n &lt;a href=&quot;\nhttp://i.imgur.com/DWI1H.jpg&quot; rel=&quot;nofollow&quot; target=&quot;_NEW&quot;&gt;\nhttp://i.imgur.com/DWI1H.jpg&lt;/a&gt;\n\n\nRelease Title: Prometheus (2012)\n\n\t\t\t\t\t\nGenre: Adventure | Sci-Fi | Thriller\nIMDb Rating: 7.5/10 &lt;a href=&quot;\nhttp://www.imdb.com/title/tt1446714/&quot; rel=&quot;nofollow&quot; target=&quot;_NEW&quot;&gt;\nhttp://www.imdb.com/title/tt1446714/&lt;/a&gt;\n\n\nPlot: A team of explorers discover a clue to the origins of mankind on Earth, leading them on a journey to the darkest corners of the universe. There, they must fight a terrifying battle to save the future of the human race. \n\n\nDirector: Ridley Scott\n\n\nStars: Noomi Rapace, Logan Marshall-Green and Michael Fassbender.\n\n\nRated: R for sci-fi violence including some intense images, and brief language.\n\n\nGeneral\nFormat                         : MPEG-4\nFile size                      : 403 MiB\nDuration                       : 1h 58mn\nOverall bit rate               : 475 Kbps\nSource                         : PAL.DVDR-PTpOWeR(Thanks)\n\n\nVideo\nID                             : 1\nFormat                         : AVC\nFormat/Info                    : Advanced Video Codec\nCodec ID                       : avc1\nCodec ID/Info                  : Advanced Video Coding\nDuration                       : 1h 58mn\nBit rate                       : 408 Kbps\nMaximum bit rate               : 5 384 Kbps\nWidth                          : 720 pixels\nHeight                         : 288 pixels\nDisplay aspect ratio           : 2.500\nFrame rate mode                : Constant\nFrame rate                     : 25.000 fps\nStream size                    : 346 MiB (86%)\nWriting library                : x264 core \n\n\nAudio\nID                             : 2\nFormat                         : AC-3\nFormat/Info                    : Audio Coding 3\nCodec ID                       : ac-3\nDuration                       : 1h 58mn\nBit rate mode                  : Constant\nBit rate                       : 64.0 Kbps\nChannel(s)                     : 2 channels\nChannel positions              : Front: L R\nSampling rate                  : 44.1 KHz\nStream size                    : 54.3 MiB (13%)\nLanguage                       : English\n\n\nScreens:\n\n &lt;a href=&quot;\nhttp://i.imgbox.com/abhqNm8x.png&quot; rel=&quot;nofollow&quot; target=&quot;_NEW&quot;&gt;\nhttp://i.imgbox.com/abhqNm8x.png&lt;/a&gt; &lt;a href=&quot;\nhttp://i.imgbox.com/acd4AlB6.png&quot; rel=&quot;nofollow&quot; target=&quot;_NEW&quot;&gt;\nhttp://i.imgbox.com/acd4AlB6.png&lt;/a&gt; &lt;a href=&quot;\nhttp://i.imgbox.com/adluSHx7.png&quot; rel=&quot;nofollow&quot; target=&quot;_NEW&quot;&gt;\nhttp://i.imgbox.com/adluSHx7.png&lt;/a&gt; &lt;a href=&quot;\nhttp://i.imgbox.com/adoR92tp.png&quot; rel=&quot;nofollow&quot; target=&quot;_NEW&quot;&gt;\nhttp://i.imgbox.com/adoR92tp.png&lt;/a&gt; &lt;a href=&quot;\nhttp://i.imgbox.com/ado89PS6.png&quot; rel=&quot;nofollow&quot; target=&quot;_NEW&quot;&gt;\nhttp://i.imgbox.com/ado89PS6.png&lt;/a&gt; &lt;a href=&quot;\nhttp://i.imgbox.com/acsLv3Zv.png&quot; rel=&quot;nofollow&quot; target=&quot;_NEW&quot;&gt;\nhttp://i.imgbox.com/acsLv3Zv.png&lt;/a&gt; &lt;a href=&quot;\nhttp://i.imgbox.com/abgDfbzz.png&quot; rel=&quot;nofollow&quot; target=&quot;_NEW&quot;&gt;\nhttp://i.imgbox.com/abgDfbzz.png&lt;/a&gt; &lt;a href=&quot;\nhttp://i.imgbox.com/acbX7lK3.png&quot; rel=&quot;nofollow&quot; target=&quot;_NEW&quot;&gt;\nhttp://i.imgbox.com/acbX7lK3.png&lt;/a&gt; &lt;a href=&quot;\nhttp://i.imgbox.com/abxK62Am.png&quot; rel=&quot;nofollow&quot; target=&quot;_NEW&quot;&gt;\nhttp://i.imgbox.com/abxK62Am.png&lt;/a&gt; &lt;a href=&quot;\nhttp://i.imgbox.com/abiV5xz0.png&quot; rel=&quot;nofollow&quot; target=&quot;_NEW&quot;&gt;\nhttp://i.imgbox.com/abiV5xz0.png&lt;/a&gt;\n\n\n\n------------------------------------------------------------------------\n\n\nRecommend you to use VLC player. Enjoy!\n\n\nGreets to: srkfan, Vitamin_X, MgB, Feel_Free, staff members at ExtraTorrent, TPB,KAT, 1337x, PublicHD, Ahashare,\nSilverTorrent, TorrentMafia, P2PDL, and all others\n\n\nEncoder Notes: Looking For Early Access To Anything You Can Provide DVDScr, R5, DVDRips, BluRay, Direct Audio, Early Music\nReleases, Seedboxes, Links, Dedicated Servers anything u can provide, Advance / Promo CDs/DVDs. If You Got anything to\noffer contact me at &quot;&lt;a class=&quot;__cf_email__&quot; href=&quot;/cdn-cgi/l/email-protection&quot; data-cfemail=&quot;9af9f5f4eefbf9eedaeef3f4e3f7b4ffef&quot;&gt;[email&amp;#160;protected]&lt;/a&gt;&lt;script cf-hash='f9e31' type=&quot;text/javascript&quot;&gt;\n/* &lt;![CDATA[ */!function(){try{var t=&quot;currentScript&quot;in document?document.currentScript:function(){for(var t=document.getElementsByTagName(&quot;script&quot;),e=t.length;e--;)if(t[e].getAttribute(&quot;cf-hash&quot;))return t[e]}();if(t&amp;&amp;t.previousSibling){var e,r,n,i,c=t.previousSibling,a=c.getAttribute(&quot;data-cfemail&quot;);if(a){for(e=&quot;&quot;,r=parseInt(a.substr(0,2),16),n=2;a.length-n;n+=2)i=parseInt(a.substr(n,2),16)^r,e+=String.fromCharCode(i);e=document.createTextNode(e),c.parentNode.replaceChild(e,c)}}}catch(u){}}();/* ]]&gt; */&lt;/script&gt;&quot;\n","torrent":{"xt":"urn:btih:00cd4e45e6bc779b29b25331b9b48e7b3c45f24e","amp;dn":"Prometheus+2012+DVDRip+x264+AC3+-+ViZNU+%5BP2PDL%5D","amp;tr":["udp%3A%2F%2Ftracker.openbittorrent.com%3A80","udp%3A%2F%2Fopen.demonii.com%3A1337","udp%3A%2F%2Ftracker.coppersurfer.tk%3A6969","udp%3A%2F%2Fexodus.desync.com%3A6969"],"infoHash":"00cd4e45e6bc779b29b25331b9b48e7b3c45f24e","infoHashBuffer":{"type":"Buffer","data":[0,205,78,69,230,188,119,155,41,178,83,49,185,180,142,123,60,69,242,78]},"announce":[],"urlList":[]}}